<?xml version="1.0" encoding="UTF-8"?>
<mxfile host="app.diagrams.net">
  <diagram name="LifeOS Schema" id="schema1">
    <mxGraphModel dx="1000" dy="800" grid="1" gridSize="10" guides="1" tooltips="1" connect="1" arrows="1" fold="1" page="1" pageScale="1" pageWidth="827" pageHeight="1169">
      <root>
        <mxCell id="0"/>
        <mxCell id="1" parent="0"/>
        
        <!-- Entities -->
        <mxCell id="2" value="User" style="shape=rectangle;rounded=1;fillColor=#ffffff;strokeColor=#000000;" vertex="1" parent="1">
          <mxGeometry x="400" y="100" width="120" height="60" as="geometry"/>
        </mxCell>
        <mxCell id="3" value="UserSettings" style="shape=rectangle;rounded=1;fillColor=#ffffff;strokeColor=#000000;" vertex="1" parent="1">
          <mxGeometry x="600" y="100" width="140" height="60" as="geometry"/>
        </mxCell>
        <mxCell id="4" value="ScheduleEntry" style="shape=rectangle;rounded=1;fillColor=#ffffff;strokeColor=#000000;" vertex="1" parent="1">
          <mxGeometry x="400" y="200" width="140" height="60" as="geometry"/>
        </mxCell>
        <mxCell id="5" value="FoodItem" style="shape=rectangle;rounded=1;fillColor=#ffffff;strokeColor=#000000;" vertex="1" parent="1">
          <mxGeometry x="100" y="300" width="120" height="60" as="geometry"/>
        </mxCell>
        <mxCell id="6" value="FoodLog" style="shape=rectangle;rounded=1;fillColor=#ffffff;strokeColor=#000000;" vertex="1" parent="1">
          <mxGeometry x="300" y="300" width="120" height="60" as="geometry"/>
        </mxCell>
        <mxCell id="7" value="SupplementIntake" style="shape=rectangle;rounded=1;fillColor=#ffffff;strokeColor=#000000;" vertex="1" parent="1">
          <mxGeometry x="500" y="300" width="160" height="60" as="geometry"/>
        </mxCell>
        <mxCell id="8" value="CompoundInjection" style="shape=rectangle;rounded=1;fillColor=#ffffff;strokeColor=#000000;" vertex="1" parent="1">
          <mxGeometry x="700" y="300" width="160" height="60" as="geometry"/>
        </mxCell>
        <mxCell id="9" value="LearningSession" style="shape=rectangle;rounded=1;fillColor=#ffffff;strokeColor=#000000;" vertex="1" parent="1">
          <mxGeometry x="200" y="400" width="160" height="60" as="geometry"/>
        </mxCell>
        <mxCell id="10" value="Summary" style="shape=rectangle;rounded=1;fillColor=#ffffff;strokeColor=#000000;" vertex="1" parent="1">
          <mxGeometry x="400" y="400" width="120" height="60" as="geometry"/>
        </mxCell>
        <mxCell id="11" value="Goal" style="shape=rectangle;rounded=1;fillColor=#ffffff;strokeColor=#000000;" vertex="1" parent="1">
          <mxGeometry x="600" y="400" width="100" height="60" as="geometry"/>
        </mxCell>
        
        <!-- Relationships -->
        <mxCell id="e1" edge="1" parent="1" source="2" target="3">
          <mxGeometry relative="1" as="geometry"/>
        </mxCell>
        <mxCell id="e2" edge="1" parent="1" source="2" target="4">
          <mxGeometry relative="1" as="geometry"/>
        </mxCell>
        <mxCell id="e3" edge="1" parent="1" source="5" target="6">
          <mxGeometry relative="1" as="geometry"/>
        </mxCell>
        <mxCell id="e4" edge="1" parent="1" source="2" target="6">
          <mxGeometry relative="1" as="geometry"/>
        </mxCell>
        <mxCell id="e5" edge="1" parent="1" source="2" target="7">
          <mxGeometry relative="1" as="geometry"/>
        </mxCell>
        <mxCell id="e6" edge="1" parent="1" source="2" target="8">
          <mxGeometry relative="1" as="geometry"/>
        </mxCell>
        <mxCell id="e7" edge="1" parent="1" source="2" target="9">
          <mxGeometry relative="1" as="geometry"/>
        </mxCell>
        <mxCell id="e8" edge="1" parent="1" source="2" target="10">
          <mxGeometry relative="1" as="geometry"/>
        </mxCell>
        <mxCell id="e9" edge="1" parent="1" source="2" target="11">
          <mxGeometry relative="1" as="geometry"/>
        </mxCell>
        <mxCell id="e10" edge="1" parent="1" source="4" target="11">
          <mxGeometry relative="1" as="geometry"/>
        </mxCell>
      </root>
    </mxGraphModel>
  </diagram>
</mxfile>
